<svg width="40" height="40" viewBox="0 0 40 40" fill="none" xmlns="http://www.w3.org/2000/svg">
<path d="M8.5 31V31.5H9H37H37.5V31V3V2.5H37H9H8.5V3V31ZM3 37.5H33.5V39.5H3C2.34128 39.5 1.7661 39.259 1.25355 38.7464C0.741009 38.2339 0.5 37.6587 0.5 37V6.5H2.5V37V37.5H3ZM24.2464 26.0464C23.9404 26.3525 23.5843 26.5 23.15 26.5C22.7157 26.5 22.3596 26.3525 22.0536 26.0464C21.7475 25.7404 21.6 25.3843 21.6 24.95C21.6 24.5157 21.7475 24.1596 22.0536 23.8536C22.3596 23.5475 22.7157 23.4 23.15 23.4C23.5843 23.4 23.9404 23.5475 24.2464 23.8536C24.5525 24.1596 24.7 24.5157 24.7 24.95C24.7 25.3843 24.5525 25.7404 24.2464 26.0464ZM24.2215 18.3394C24.0072 18.8011 23.8697 19.4304 23.7908 20.2H22.407C22.4373 19.1557 22.5646 18.4488 22.7547 18.0329C22.9739 17.5534 23.5653 16.8426 24.6176 15.887C25.3976 15.308 25.9831 14.7333 26.3287 14.1572C26.6817 13.5689 26.85 12.8941 26.85 12.15C26.85 11.1489 26.487 10.2969 25.7633 9.63184C25.037 8.96445 24.0996 8.65 23 8.65C22.1324 8.65 21.3622 8.89774 20.7156 9.40725C20.1941 9.81808 19.7604 10.3731 19.4054 11.054L18.0537 10.4833C18.4849 9.55253 19.0951 8.82557 19.8821 8.28782C20.795 7.66398 21.8291 7.35 23 7.35C24.5999 7.35 25.8458 7.80193 26.7863 8.66785C27.7252 9.53223 28.2 10.6448 28.2 12.05C28.2 12.8483 28.0392 13.5225 27.7348 14.088C27.4205 14.6715 26.8379 15.3879 25.9532 16.2398C25.0859 17.0737 24.4813 17.7799 24.2215 18.3394ZM9 33.5C8.34128 33.5 7.7661 33.259 7.25355 32.7464C6.74101 32.2339 6.5 31.6587 6.5 31V3C6.5 2.34128 6.74101 1.7661 7.25355 1.25355C7.7661 0.741009 8.34128 0.5 9 0.5H37C37.6587 0.5 38.2339 0.741009 38.7464 1.25355C39.259 1.7661 39.5 2.34128 39.5 3V31C39.5 31.6587 39.259 32.2339 38.7464 32.7464C38.2339 33.259 37.6587 33.5 37 33.5H9Z" fill="white" stroke="white"/>
</svg>
